<?xml version="1.0" encoding="UTF-8"?>
<svg id="Layer_1" data-name="Layer 1" xmlns="http://www.w3.org/2000/svg" viewBox="0 0 185.75 35.36">
  <defs>
    <style>
      .cls-1 {
        fill: #fff;
        stroke-width: 0px;
      }
    </style>
  </defs>
  <path class="cls-1" d="m0,34V1.59h6.6v26.9h16.4v5.51H0Z"/>
  <path class="cls-1" d="m27.7,34V1.32h24.23v5.53h-17.63v7.24h16.4v5.51h-16.4v8.89h18.25v5.51h-24.85Z"/>
  <path class="cls-1" d="m129.87,1.32h12.06c2.72,0,4.79.21,6.22.62,1.92.56,3.56,1.57,4.93,3.01,1.37,1.44,2.41,3.21,3.12,5.29.71,2.09,1.07,4.66,1.07,7.72,0,2.69-.33,5.01-1,6.95-.82,2.38-1.98,4.3-3.5,5.77-1.14,1.11-2.69,1.98-4.64,2.61-1.46.46-3.4.69-5.84.69h-12.41V1.32Zm6.6,5.53v21.64h4.93c1.84,0,3.17-.1,3.99-.31,1.07-.27,1.96-.72,2.66-1.36.71-.64,1.28-1.69,1.73-3.15.45-1.46.67-3.46.67-5.98s-.22-4.46-.67-5.82c-.45-1.35-1.07-2.41-1.87-3.16s-1.82-1.27-3.05-1.54c-.92-.21-2.73-.31-5.42-.31h-2.96Z"/>
  <path class="cls-1" d="m169.48,34V6.85h-9.7V1.32h25.97v5.53h-9.67v27.15h-6.6Z"/>
  <g>
    <path class="cls-1" d="m82.74,19.73c-1.01,4.93-5.12,8.62-10.04,8.62-5.68,0-10.28-4.92-10.28-10.99s4.6-10.99,10.28-10.99c2.94,0,5.59,1.32,7.46,3.43h7.53c-2.7-5.8-8.47-9.8-15.15-9.8-9.27,0-16.78,7.7-16.78,17.19s7.51,17.19,16.78,17.19c8.42,0,15.4-6.36,16.59-14.65h-6.4Z"/>
    <rect class="cls-1" x="70.52" y="15.36" width="18.65" height="5.15"/>
  </g>
  <g>
    <path class="cls-1" d="m119.33,19.34c-.54,5.12-4.23,9.19-8.91,9.83v6.18c8.12-.73,14.58-7.51,15.25-16.02h-6.35Z"/>
    <path class="cls-1" d="m107.5,29.13c-4.91-.85-8.67-5.48-8.67-11.08,0-6.19,4.6-11.22,10.28-11.22,5.17,0,9.45,4.16,10.17,9.59h6.39c-.71-9.01-7.92-16.09-16.72-16.09-9.27,0-16.78,7.86-16.78,17.55,0,9.18,6.74,16.7,15.32,17.48v-6.23Z"/>
  </g>
</svg>